<svg xmlns="http://www.w3.org/2000/svg" width="465.74" height="153.954" viewBox="0 0 465.74 153.954">
  <g id="Logo_Vetorizada" data-name="Logo Vetorizada" transform="translate(0 0.004)">
    <path id="Caminho_7" data-name="Caminho 7" d="M235.9,370.2a7.45,7.45,0,0,1-2.69-1.37l1-2.27a8,8,0,0,0,2.38,1.24,8.37,8.37,0,0,0,2.82.49,4.89,4.89,0,0,0,2.61-.56,1.71,1.71,0,0,0,.87-1.49,1.43,1.43,0,0,0-.48-1.11,3.56,3.56,0,0,0-1.23-.69c-.49-.16-1.17-.35-2-.56a23.492,23.492,0,0,1-2.91-.85,4.72,4.72,0,0,1-1.91-1.34,3.59,3.59,0,0,1-.8-2.46,4.21,4.21,0,0,1,.71-2.37,4.79,4.79,0,0,1,2.13-1.7,8.84,8.84,0,0,1,3.5-.62,11.26,11.26,0,0,1,2.83.36,7.5,7.5,0,0,1,2.4,1l-.92,2.27a8.889,8.889,0,0,0-2.16-.92,8,8,0,0,0-2.18-.32,4.54,4.54,0,0,0-2.57.59,1.8,1.8,0,0,0-.84,1.55,1.41,1.41,0,0,0,.48,1.1,3.44,3.44,0,0,0,1.23.67c.49.17,1.17.35,2,.56a20.2,20.2,0,0,1,2.88.85,4.93,4.93,0,0,1,1.92,1.33,3.54,3.54,0,0,1,.79,2.43,4.14,4.14,0,0,1-.7,2.36,4.82,4.82,0,0,1-2.15,1.68,8.72,8.72,0,0,1-3.5.63,12.13,12.13,0,0,1-3.51-.48Z" transform="translate(-65.68 -235.42)" fill="#2680ba"/>
    <path id="Caminho_8" data-name="Caminho 8" d="M271.12,354.76H274v15.73h-2.92Z" transform="translate(-65.68 -235.42)" fill="#2680ba"/>
    <path id="Caminho_9" data-name="Caminho 9" d="M302.09,370.2a7.4,7.4,0,0,1-2.68-1.37l1-2.27a7.8,7.8,0,0,0,2.37,1.24,8.46,8.46,0,0,0,2.82.49,4.93,4.93,0,0,0,2.62-.56,1.7,1.7,0,0,0,.86-1.49,1.43,1.43,0,0,0-.48-1.11,3.51,3.51,0,0,0-1.22-.69c-.5-.16-1.17-.35-2-.56a24.586,24.586,0,0,1-2.91-.85,4.78,4.78,0,0,1-1.91-1.34,3.58,3.58,0,0,1-.79-2.46,4.2,4.2,0,0,1,.7-2.37,4.88,4.88,0,0,1,2.14-1.7,8.79,8.79,0,0,1,3.49-.62,11.259,11.259,0,0,1,2.83.36,7.659,7.659,0,0,1,2.41,1l-.92,2.27a8.888,8.888,0,0,0-2.16-.92,8.1,8.1,0,0,0-2.18-.32,4.54,4.54,0,0,0-2.57.59,1.8,1.8,0,0,0-.84,1.55,1.41,1.41,0,0,0,.48,1.1,3.48,3.48,0,0,0,1.22.67c.5.17,1.17.35,2,.56a20.189,20.189,0,0,1,2.88.85,4.86,4.86,0,0,1,1.92,1.33A3.54,3.54,0,0,1,312,366a4.15,4.15,0,0,1-.71,2.36,4.73,4.73,0,0,1-2.14,1.68,8.74,8.74,0,0,1-3.51.63,12.231,12.231,0,0,1-3.55-.47Z" transform="translate(-65.68 -235.42)" fill="#2680ba"/>
    <path id="Caminho_10" data-name="Caminho 10" d="M340.28,357.23h-5.21v-2.47h13.35v2.47H343.2v13.26h-2.92Z" transform="translate(-65.68 -235.42)" fill="#2680ba"/>
    <path id="Caminho_11" data-name="Caminho 11" d="M384.86,368v2.45h-11.8V354.76h11.49v2.45H376v4.09h7.59v2.4H376V368Z" transform="translate(-65.68 -235.42)" fill="#2680ba"/>
    <path id="Caminho_12" data-name="Caminho 12" d="M425,370.49V360.06l-5.16,8.63h-1.31l-5.17-8.49v10.29h-2.78V354.76H413l6.25,10.43,6.13-10.43h2.41v15.73Z" transform="translate(-65.68 -235.42)" fill="#2680ba"/>
    <path id="Caminho_13" data-name="Caminho 13" d="M464.68,366.85h-7.87l-1.55,3.64h-3l7.08-15.73h2.87l7.1,15.73h-3.05Zm-1-2.29-3-6.88-2.94,6.88Z" transform="translate(-65.68 -235.42)" fill="#2680ba"/>
    <path id="Caminho_14" data-name="Caminho 14" d="M495.11,370.2a7.45,7.45,0,0,1-2.69-1.37l1-2.27a7.8,7.8,0,0,0,2.37,1.24,8.37,8.37,0,0,0,2.82.49,4.89,4.89,0,0,0,2.61-.56,1.71,1.71,0,0,0,.87-1.49,1.43,1.43,0,0,0-.48-1.11,3.559,3.559,0,0,0-1.23-.69c-.49-.16-1.17-.35-2-.56a23.491,23.491,0,0,1-2.91-.85,4.72,4.72,0,0,1-1.91-1.34,3.59,3.59,0,0,1-.8-2.46,4.21,4.21,0,0,1,.71-2.37,4.79,4.79,0,0,1,2.13-1.7,8.871,8.871,0,0,1,3.5-.62,11.26,11.26,0,0,1,2.83.36,7.5,7.5,0,0,1,2.4,1l-.92,2.27a9,9,0,0,0-2.15-.92,8.121,8.121,0,0,0-2.19-.32,4.54,4.54,0,0,0-2.57.59,1.8,1.8,0,0,0-.84,1.55,1.41,1.41,0,0,0,.48,1.1,3.531,3.531,0,0,0,1.23.67c.49.17,1.17.35,2,.56a20.194,20.194,0,0,1,2.88.85,4.929,4.929,0,0,1,1.92,1.33A3.54,3.54,0,0,1,505,366a4.15,4.15,0,0,1-.71,2.36,4.821,4.821,0,0,1-2.15,1.68,8.72,8.72,0,0,1-3.5.63,12.131,12.131,0,0,1-3.53-.47Z" transform="translate(-65.68 -235.42)" fill="#2680ba"/>
    <path id="Caminho_15" data-name="Caminho 15" d="M65.68,262.61H91.52l-14.08,90s-1.37,7.72,7.56,8.6L194.35,377.9v11.47H99.87s-31.82-2.07-31.82-34.8Z" transform="translate(-65.68 -235.42)" fill="#2680ba"/>
    <path id="Caminho_16" data-name="Caminho 16" d="M81.5,362.65l114.19,18.94s8.17,3.18,10.57-10.76l16.74-106s2.19-10.17-10.77-12.36L104.42,235.71s-9.17-3-11.36,10.16L77.52,351.69S74.68,361.52,81.5,362.65Z" transform="translate(-65.68 -235.42)" fill="#fff"/>
    <path id="Caminho_17" data-name="Caminho 17" d="M290.43,293.9c0-15.36-16.53-14.77-16.53-14.77H245.63L233,340.25h14.46L252.78,316h6.35c5.38,0,8.81,24.25,8.81,24.25h16.24c-2.35-12.91-10.09-30.42-10.09-30.42C290.71,309.83,290.43,293.9,290.43,293.9Zm-24.56,9.48H255.62l3.72-13.79h7.72a6.33,6.33,0,0,1,6.74,6.07C273.8,301.72,265.87,303.38,265.87,303.38Z" transform="translate(-65.68 -235.42)" fill="#161414"/>
    <path id="Caminho_18" data-name="Caminho 18" d="M279.7,43.71H239.02l-14.28,61.13h44.79l1.86-12.13H243.32l4.01-15.22h24.35l1.96-11.18H249.19l3.03-12.62,25.62.51Z" fill="#161414"/>
    <path id="Caminho_19" data-name="Caminho 19" d="M382.15,279.13H357.9l-12.52,61.51h32.17s31.4-2,31.4-35C409,305.65,409.54,279.13,382.15,279.13ZM392.52,305c0,23.19-16.62,23.19-16.62,23.19H362l8.13-38.45H378C393.69,289.69,392.52,305,392.52,305Z" transform="translate(-65.68 -235.42)" fill="#161414"/>
    <path id="Caminho_20" data-name="Caminho 20" d="M462.73,279.13H443.57l-36.5,61.51h16.28l8.23-13.1h23.33l1.76,12.71h16.89ZM437.3,315.55,451.78,291l2.09,24.51Z" transform="translate(-65.68 -235.42)" fill="#161414"/>
    <path id="Caminho_21" data-name="Caminho 21" d="M409.7,24.71l-5.48,5.48L411,45.84l4.04-4.05Z" fill="#161414"/>
    <path id="Caminho_22" data-name="Caminho 22" d="M526.62,291l4.8-10.69s-6.23-3.26-20.31-3.26c0,0-26.47.91-26.47,19.69,0,0-.88,9.55,14.21,16.14,0,0,10.3,3.29,10.3,9.29,0,0,1.43,8.07-13.95,8.07,0,0-10.82-.77-14.47-4.42l-4.18,12.51a49.17,49.17,0,0,0,19.56,4.05s31-.27,31-21.78c0,0,.39-12.12-14.21-17.34,0,0-11.21-3.13-11.21-8.87,0,0-.91-6.52,11.86-6.52A53.719,53.719,0,0,1,526.62,291Z" transform="translate(-65.68 -235.42)" fill="#161414"/>
    <path id="Caminho_23" data-name="Caminho 23" d="M74.08,117.16H66.52L84.25,29.34H92.6Z" fill="#2680ba"/>
    <path id="Caminho_24" data-name="Caminho 24" d="M61.04,117.16H53.48L71.21,29.34h8.35Z" fill="#2680ba"/>
    <path id="Caminho_25" data-name="Caminho 25" d="M48,117.16H40.44L58.17,29.34h8.35Z" fill="#2680ba"/>
    <path id="Caminho_26" data-name="Caminho 26" d="M214.15,306.81s16.24-6.84,16.24-21.33c0,0-.41-20.73-22.69-20.73H166.23l-18.77,87.82h53.19S228,350,228,326.36C228,326.36,228.43,311.12,214.15,306.81ZM195,339.37H167.5l7-24.14h23.09c11.44,0,12.33,10.95,12.33,10.95C209.94,338.64,195,339.37,195,339.37Zm4.76-39.79H176l6.06-22.21H202c9.89,0,10.66,10.08,10.66,10.08.02,11.43-12.89,12.13-12.89,12.13Z" transform="translate(-65.68 -235.42)" fill="#161414"/>
  </g>
</svg>
